<svg width="24" height="24" viewBox="0 0 24 24" fill="none" xmlns="http://www.w3.org/2000/svg">
<path d="M9.98643 22.0341H6.63689C5.57008 22.0341 4.54916 21.5752 3.79207 20.8411C3.05792 20.084 2.59908 19.0631 2.59908 17.9963V6.80052C2.59908 5.73372 3.05792 4.71279 3.79207 3.95571C4.54916 3.22156 5.57008 2.78566 6.63689 2.78566H9.98643V22.0341ZM6.63689 0.927353C5.07923 0.927353 3.58536 1.54613 2.48393 2.64756C1.3825 3.749 0.763718 5.24286 0.763718 6.80052V17.9963C0.763718 21.2426 3.39058 23.8694 6.63689 23.8694H11.8333V0.927353H6.63689ZM4.33121 7.80997C4.33121 9.00296 5.29478 9.96653 6.49924 9.96653C7.68075 9.96653 8.64432 9.00296 8.64432 7.80997C8.64432 6.61699 7.68075 5.65342 6.49924 5.65342C5.29478 5.65342 4.33121 6.61699 4.33121 7.80997ZM18.67 11.2513C19.9433 11.2513 20.9757 12.2722 20.9757 13.5455C20.9757 14.8302 19.9433 15.8397 18.67 15.8397C17.3967 15.8397 16.3414 14.8302 16.3414 13.5455C16.3414 12.2722 17.3967 11.2513 18.67 11.2513ZM17.8326 23.8694C19.3903 23.8694 20.8841 23.2506 21.9856 22.1492C23.087 21.0478 23.7058 19.5539 23.7058 17.9963V6.80052C23.7058 3.55422 21.0789 0.927353 17.8326 0.927353H14.1275V23.8694H17.8326Z" fill="#85B6FF"/>
</svg>
