<svg width="27" height="20" viewBox="0 0 27 20" fill="none" xmlns="http://www.w3.org/2000/svg">
<path d="M25.9073 15.1465C25.4141 15.7694 24.2062 16.2133 24.2062 16.2133L15.2221 19.4447V17.061L21.834 14.7014C22.5842 14.433 22.6989 14.0522 22.0898 13.8526C21.4807 13.6518 20.3783 13.7092 19.6269 13.9799L15.2221 15.5331V13.0611L15.4756 12.9739C15.4756 12.9739 16.7489 12.5231 18.5383 12.3246C20.329 12.1273 22.5211 12.3522 24.2417 13.0049C26.1803 13.6186 26.3983 14.5236 25.9073 15.1465ZM16.0767 11.0881V4.9958C16.0767 4.28001 15.9447 3.62157 15.2737 3.43574C14.7609 3.27056 14.442 3.74775 14.442 4.4624V19.7223L10.332 18.4158V0.221558C12.079 0.546188 14.6256 1.31475 15.9941 1.77588C19.4755 2.97231 20.6559 4.4624 20.6559 7.81768C20.6559 11.0881 18.6393 12.3281 16.0767 11.0892M2.78975 16.8133C0.798378 16.2512 0.466865 15.0811 1.37422 14.4078C2.21276 13.7861 3.63975 13.318 3.63975 13.318L9.53357 11.2188V13.6117L5.29158 15.1316C4.54252 15.4 4.42781 15.7809 5.03578 15.9805C5.64604 16.1812 6.7484 16.1239 7.49861 15.8543L9.53357 15.1155V17.2549L9.1275 17.3237C7.09254 17.6564 4.92566 17.5176 2.78975 16.8133Z" fill="#85B6FF"/>
</svg>
