<svg width="29" height="29" viewBox="0 0 29 29" fill="none" xmlns="http://www.w3.org/2000/svg">
<path d="M14.4116 11.2267C17.7462 14.606 20.0966 18.5681 22.0605 22.9466C19.9594 24.8322 17.2347 25.8733 14.4116 25.8694C11.5885 25.8733 8.86382 24.8322 6.7627 22.9466C8.72654 18.5681 11.0758 14.606 14.4116 11.2267ZM6.96574 5.67238C9.03033 6.78438 10.9664 8.11998 12.7391 9.65513C9.42857 13.0207 7.04948 16.8979 5.09137 21.0872C3.68923 19.1391 2.93665 16.7986 2.94055 14.3984C2.93887 12.7391 3.29799 11.0992 3.99302 9.5925C4.68806 8.08577 5.70239 6.74816 6.96574 5.67238ZM21.8574 5.67238C23.1208 6.74816 24.1351 8.08577 24.8302 9.5925C25.5252 11.0992 25.8843 12.7391 25.8826 14.3984C25.8826 16.8945 25.0854 19.2048 23.7318 21.086C21.7737 16.8979 19.3946 13.0219 16.0841 9.65513C17.8568 8.12001 19.7929 6.7844 21.8574 5.67238ZM14.4116 2.92737C16.333 2.92737 18.1443 3.39997 19.7353 4.23506C17.8406 5.33768 16.0576 6.62198 14.4116 8.06983C12.7655 6.62199 10.9826 5.33769 9.08788 4.23506C10.73 3.37345 12.5572 2.92463 14.4116 2.92737Z" fill="#85B6FF"/>
</svg>
